<svg xmlns="http://www.w3.org/2000/svg" width="14" height="15.556" viewBox="0 0 14 15.556">
  <path id="Icon_material-date-range" data-name="Icon material-date-range" d="M9.167,10H7.611v1.556H9.167Zm3.111,0H10.722v1.556h1.556Zm3.111,0H13.833v1.556h1.556Zm1.556-5.444h-.778V3H14.611V4.556H8.389V3H6.833V4.556H6.056A1.548,1.548,0,0,0,4.508,6.111L4.5,17a1.555,1.555,0,0,0,1.556,1.556H16.944A1.56,1.56,0,0,0,18.5,17V6.111A1.56,1.56,0,0,0,16.944,4.556Zm0,12.444H6.056V8.444H16.944Z" transform="translate(-4.5 -3)" fill="#4397f0"/>
</svg>
