<svg id="cloudy_icon" xmlns="http://www.w3.org/2000/svg" width="29.888" height="18.553" viewBox="0 0 29.888 18.553">
  <path id="Path_35" data-name="Path 35" d="M345.459,376.553H327.764a6.891,6.891,0,1,1,0-13.783h1.353A8.326,8.326,0,0,1,336.612,358a8.41,8.41,0,0,1,8.321,7.951h.527a5.3,5.3,0,1,1,0,10.6Zm-17.695-12.722a5.831,5.831,0,1,0,0,11.663h17.695a4.241,4.241,0,1,0,0-8.482h-1.041a.53.53,0,0,1-.53-.53,7.358,7.358,0,0,0-7.276-7.421,7.275,7.275,0,0,0-6.666,4.45.53.53,0,0,1-.487.321Z" transform="translate(-320.872 -358)" fill="#3f3d56"/>
</svg>
