<svg id="p_cloudy_icon" xmlns="http://www.w3.org/2000/svg" width="29.888" height="22.264" viewBox="0 0 29.888 22.264">
  <path id="Path_36" data-name="Path 36" d="M471.354,363.221l-.413-.976a5.3,5.3,0,1,0-6.965-6.905l-.98-.4a6.362,6.362,0,1,1,8.358,8.286Z" transform="translate(-447.558 -350.999)" fill="#3f3d56"/>
  <path id="Path_37" data-name="Path 37" d="M458.459,376.553H440.764a6.891,6.891,0,1,1,0-13.783h1.353A8.326,8.326,0,0,1,449.612,358a8.41,8.41,0,0,1,8.321,7.951h.527a5.3,5.3,0,1,1,0,10.6Zm-17.695-12.722a5.831,5.831,0,1,0,0,11.663h17.695a4.241,4.241,0,1,0,0-8.482h-1.041a.53.53,0,0,1-.53-.53,7.358,7.358,0,0,0-7.277-7.421,7.275,7.275,0,0,0-6.665,4.45.53.53,0,0,1-.487.321Z" transform="translate(-433.872 -354.289)" fill="#3f3d56"/>
</svg>