<svg id="rainy_icon" xmlns="http://www.w3.org/2000/svg" width="29.888" height="25.612" viewBox="0 0 29.888 25.612">
  <path id="Path_38" data-name="Path 38" d="M571.459,371.553h-2.128a.53.53,0,1,1,0-1.06h2.128a4.241,4.241,0,1,0,0-8.482h-1.041a.53.53,0,0,1-.53-.53,7.358,7.358,0,0,0-7.276-7.421,7.275,7.275,0,0,0-6.665,4.45.53.53,0,0,1-.487.321h-1.695a5.831,5.831,0,1,0,0,11.663h1.643a.53.53,0,0,1,0,1.06h-1.643a6.891,6.891,0,1,1,0-13.783h1.353A8.326,8.326,0,0,1,562.612,353a8.41,8.41,0,0,1,8.321,7.951h.527a5.3,5.3,0,1,1,0,10.6Z" transform="translate(-546.872 -353)" fill="#3f3d56"/>
  <path id="Path_39" data-name="Path 39" d="M575.93,385.973a.53.53,0,0,1-.53-.53v-6.1a.53.53,0,0,1,1.06,0v6.1A.53.53,0,0,1,575.93,385.973Z" transform="translate(-560.278 -365.132)" fill="#3f3d56"/>
  <path id="Path_40" data-name="Path 40" d="M568.93,391.973a.53.53,0,0,1-.53-.53v-6.1a.53.53,0,0,1,1.06,0v6.1a.53.53,0,0,1-.53.53Z" transform="translate(-556.989 -367.952)" fill="#3f3d56"/>
  <path id="Path_41" data-name="Path 41" d="M582.93,394.973a.53.53,0,0,1-.53-.53v-6.1a.53.53,0,0,1,1.06,0v6.1A.53.53,0,0,1,582.93,394.973Z" transform="translate(-563.568 -369.361)" fill="#3f3d56"/>
</svg>
