<svg id="snowy_icon" xmlns="http://www.w3.org/2000/svg" width="29.888" height="23.323" viewBox="0 0 29.888 23.323">
  <path id="Path_42" data-name="Path 42" d="M684.459,371.553h-2.128a.53.53,0,1,1,0-1.06h2.128a4.241,4.241,0,1,0,0-8.482h-1.041a.53.53,0,0,1-.53-.53,7.358,7.358,0,0,0-7.276-7.421,7.275,7.275,0,0,0-6.666,4.45.53.53,0,0,1-.487.321h-1.695a5.831,5.831,0,1,0,0,11.663h1.643a.53.53,0,1,1,0,1.06h-1.643a6.891,6.891,0,1,1,0-13.783h1.353A8.326,8.326,0,0,1,675.612,353a8.41,8.41,0,0,1,8.321,7.951h.527a5.3,5.3,0,1,1,0,10.6Z" transform="translate(-659.872 -353)" fill="#3f3d56"/>
  <circle id="Ellipse_2" data-name="Ellipse 2" cx="1.193" cy="1.193" r="1.193" transform="translate(13.634 14.842)" fill="#3f3d56"/>
  <circle id="Ellipse_3" data-name="Ellipse 3" cx="1.193" cy="1.193" r="1.193" transform="translate(17.609 16.432)" fill="#3f3d56"/>
  <circle id="Ellipse_4" data-name="Ellipse 4" cx="1.193" cy="1.193" r="1.193" transform="translate(10.983 18.288)" fill="#3f3d56"/>
  <circle id="Ellipse_5" data-name="Ellipse 5" cx="1.193" cy="1.193" r="1.193" transform="translate(15.224 20.938)" fill="#3f3d56"/>
</svg>
