<svg id="sunny_icon" xmlns="http://www.w3.org/2000/svg" width="29.419" height="29.949" viewBox="0 0 29.419 29.949">
  <path id="Path_26" data-name="Path 26" d="M231.2,374.722a6.361,6.361,0,1,1,6.361-6.361,6.361,6.361,0,0,1-6.361,6.361Zm0-11.662a5.3,5.3,0,1,0,5.3,5.3A5.3,5.3,0,0,0,231.2,363.06Z" transform="translate(-216.096 -353.254)" fill="#3f3d56"/>
  <path id="Path_27" data-name="Path 27" d="M235.979,352.656a.53.53,0,0,1-.53-.53v-6.1a.53.53,0,1,1,1.06,0v6.1A.53.53,0,0,1,235.979,352.656Z" transform="translate(-221.08 -345.5)" fill="#3f3d56"/>
  <path id="Path_28" data-name="Path 28" d="M214.968,373.667h-6.1a.53.53,0,0,1,0-1.06h6.1a.53.53,0,0,1,0,1.06Z" transform="translate(-208.343 -358.238)" fill="#3f3d56"/>
  <path id="Path_29" data-name="Path 29" d="M256.968,373.667h-6.1a.53.53,0,1,1,0-1.06h6.1a.53.53,0,1,1,0,1.06Z" transform="translate(-228.079 -358.238)" fill="#3f3d56"/>
  <path id="Path_30" data-name="Path 30" d="M250.557,360.537a.53.53,0,0,1-.369-.911l2.553-2.477a.53.53,0,0,1,.738.761l-2.553,2.477A.528.528,0,0,1,250.557,360.537Z" transform="translate(-227.931 -350.904)" fill="#3f3d56"/>
  <path id="Path_31" data-name="Path 31" d="M218.925,360.537a.528.528,0,0,1-.369-.15L216,357.911a.53.53,0,1,1,.738-.761l2.553,2.477a.53.53,0,0,1-.369.911Z" transform="translate(-211.867 -350.904)" fill="#3f3d56"/>
  <path id="Path_32" data-name="Path 32" d="M217.373,387.729a.53.53,0,0,1-.38-.9l2.553-2.629a.53.53,0,1,1,.761.739l-2.553,2.629A.529.529,0,0,1,217.373,387.729Z" transform="translate(-212.337 -363.611)" fill="#3f3d56"/>
  <path id="Path_33" data-name="Path 33" d="M253.64,388.26a.527.527,0,0,1-.379-.16l-3.083-3.159a.53.53,0,0,1,.759-.74l3.083,3.159a.53.53,0,0,1-.379.9Z" transform="translate(-227.931 -363.611)" fill="#3f3d56"/>
  <path id="Path_34" data-name="Path 34" d="M235.979,395.656a.53.53,0,0,1-.53-.53v-6.1a.53.53,0,1,1,1.06,0v6.1A.53.53,0,0,1,235.979,395.656Z" transform="translate(-221.08 -365.707)" fill="#3f3d56"/>
</svg>
