<?xml version="1.0" encoding="utf-8"?>
<!-- Generator: Adobe Adobe Illustrator 24.2.0, SVG Export Plug-In . SVG Version: 6.00 Build 0)  -->
<svg version="1.1" id="Layer_1" xmlns="http://www.w3.org/2000/svg" xmlns:xlink="http://www.w3.org/1999/xlink" x="0px" y="0px"
	 width="134px" height="57.2px" viewBox="0 0 134 57.2" style="enable-background:new 0 0 134 57.2;" xml:space="preserve">
<style type="text/css">
	.st0{fill:#F0675B;stroke:#F0675B;stroke-linecap:round;stroke-linejoin:round;}
	.st1{fill:#FFFFFF;stroke:#0250A3;stroke-width:2;}
	.st2{enable-background:new    ;}
	.st3{fill:#0250A3;}
	.st4{fill:#4397F0;}
	.st5{fill:#F0675B;}
</style>
<g id="logo" transform="translate(-593.663 -308)">
	<g id="sun" transform="translate(612.414 314.424)">
		<path id="Path_1" class="st0" d="M13.4,19c-3.1,0-5.6-2.5-5.6-5.6s2.5-5.6,5.6-5.6c3.1,0,5.6,2.5,5.6,5.6l0,0
			C19,16.5,16.5,19,13.4,19z M13.4,8.7c-2.6,0-4.7,2.1-4.7,4.7s2.1,4.7,4.7,4.7s4.7-2.1,4.7-4.7S16,8.7,13.4,8.7L13.4,8.7z"/>
		<path id="Path_2" class="st0" d="M13.2,6.3c-0.3,0-0.5-0.2-0.5-0.5V0.5c0-0.3,0.2-0.5,0.5-0.5c0.3,0,0.5,0.2,0.5,0.5c0,0,0,0,0,0
			v5.4C13.7,6.1,13.4,6.3,13.2,6.3z"/>
		<path id="Path_3" class="st0" d="M5.9,13.7H0.5c-0.3,0-0.5-0.2-0.5-0.5c0-0.3,0.2-0.5,0.5-0.5h5.4c0.3,0,0.5,0.2,0.5,0.5
			C6.3,13.4,6.1,13.6,5.9,13.7C5.9,13.7,5.9,13.7,5.9,13.7z"/>
		<path id="Path_4" class="st0" d="M26.3,13.7h-5.4c-0.3,0-0.5-0.2-0.5-0.5c0-0.3,0.2-0.5,0.5-0.5c0,0,0,0,0,0h5.4
			c0.3,0,0.5,0.2,0.5,0.5C26.7,13.4,26.5,13.6,26.3,13.7C26.3,13.7,26.3,13.7,26.3,13.7L26.3,13.7z"/>
		<path id="Path_5" class="st0" d="M20,8.5c-0.3,0-0.5-0.2-0.5-0.5c0-0.1,0.1-0.2,0.1-0.3L22,5.5c0.2-0.2,0.5-0.2,0.7,0
			c0.2,0.2,0.2,0.5,0,0.6l-2.3,2.2C20.3,8.5,20.1,8.5,20,8.5z"/>
		<path id="Path_6" class="st0" d="M6.2,8.5c-0.1,0-0.2,0-0.3-0.1L3.7,6.2C3.5,6,3.5,5.7,3.7,5.5c0.2-0.2,0.5-0.2,0.6,0l2.3,2.2
			c0.2,0.2,0.2,0.5,0,0.7C6.5,8.5,6.4,8.5,6.2,8.5L6.2,8.5z"/>
		<path id="Path_7" class="st0" d="M4.5,21.3c-0.3,0-0.5-0.2-0.5-0.5c0-0.1,0-0.2,0.1-0.3l2.3-2.3C6.6,18,6.9,18,7,18.2
			c0.2,0.2,0.2,0.5,0,0.7l0,0l-2.3,2.3C4.7,21.3,4.6,21.3,4.5,21.3z"/>
		<path id="Path_8" class="st0" d="M22.7,21.8c-0.1,0-0.2-0.1-0.3-0.1l-2.7-2.8c-0.2-0.2-0.2-0.5,0-0.7c0.2-0.2,0.5-0.2,0.6,0
			l2.7,2.8c0.2,0.2,0.2,0.5,0,0.7C23,21.8,22.9,21.8,22.7,21.8L22.7,21.8z"/>
		<path id="Path_9" class="st0" d="M13.2,26.7c-0.3,0-0.5-0.2-0.5-0.5v-5.4c0-0.3,0.2-0.5,0.5-0.5c0.3,0,0.5,0.2,0.5,0.5v5.4
			C13.7,26.5,13.4,26.7,13.2,26.7z"/>
	</g>
	<path id="cloud" class="st1" d="M631.2,358.5h-26.3c-5.8-0.1-10.4-4.8-10.3-10.6c0.1-5.7,4.6-10.2,10.3-10.3h1.9
		c1-2.1,2.6-3.9,4.6-5.1c2-1.3,4.3-2,6.7-2c6.6,0.1,12.1,5.2,12.6,11.8h0.6c0.5,0,1,0.1,1.5,0.2c4.4,0.9,7.2,5.2,6.2,9.6
		C638.2,355.8,635,358.4,631.2,358.5L631.2,358.5z"/>
	<g class="st2">
		<path class="st3" d="M645,314.1h9.2v2.3h-3.2v9.6h-2.9v-9.6H645V314.1z"/>
		<path class="st3" d="M663.2,321.1h-4.5v4.9h-2.9v-11.9h2.9v4.7h4.5v-4.7h2.9V326h-2.9V321.1z"/>
		<path class="st3" d="M675.5,316.4h-4.4v2.4h3.9v2.2h-3.9v2.6h4.4v2.3h-7.3v-11.9h7.3V316.4z"/>
	</g>
	<g class="st2">
		<path class="st4" d="M645.1,330.7h3.1l1.7,8.7l2.1-8.7h3.2l2,8.7l1.7-8.7h3.1l-3.1,11.9h-3.5l-1.9-7.9l-2,7.9h-3.5L645.1,330.7z"
			/>
		<path class="st4" d="M670.9,333h-4.4v2.4h3.9v2.2h-3.9v2.6h4.4v2.3h-7.3v-11.9h7.3V333z"/>
		<path class="st4" d="M680.2,340.5h-4.5l-0.7,2.1h-3l4.3-11.9h3.4l4.3,11.9h-3.1L680.2,340.5z M678,333.9l-1.5,4.4h2.9L678,333.9z"
			/>
		<path class="st4" d="M684.7,330.7h9.2v2.3h-3.2v9.6h-2.9V333h-3.2V330.7z"/>
		<path class="st4" d="M702.8,337.7h-4.5v4.9h-2.9v-11.9h2.9v4.7h4.5v-4.7h2.9v11.9h-2.9V337.7z"/>
		<path class="st4" d="M715.1,333h-4.4v2.4h3.9v2.2h-3.9v2.6h4.4v2.3h-7.3v-11.9h7.3V333z"/>
		<path class="st4" d="M721.8,330.7c2.9,0,4.4,1.7,4.4,3.8c0,1.5-0.8,2.9-2.7,3.5l2.8,4.7h-3.3l-2.5-4.5h-0.7v4.5H717v-11.9H721.8z
			 M721.7,333.1h-1.8v3h1.8c1.1,0,1.6-0.6,1.6-1.5C723.3,333.7,722.8,333.1,721.7,333.1z"/>
	</g>
	<g class="st2">
		<path class="st5" d="M650.3,347.2h2.9v8.1c0,2.6-1.6,3.9-3.9,3.9c-2.4,0-4.2-1.4-4.2-4.1h2.9c0,1,0.4,1.5,1.2,1.5
			c0.7,0,1.1-0.4,1.1-1.3V347.2z"/>
		<path class="st5" d="M661.2,359.3c-3.4,0-6.1-2.5-6.1-6.1c0-3.6,2.8-6.1,6.1-6.1c3.4,0,6.1,2.5,6.1,6.1
			C667.3,356.7,664.5,359.3,661.2,359.3z M661.2,356.6c1.9,0,3.1-1.4,3.1-3.5c0-2.1-1.2-3.5-3.1-3.5c-1.9,0-3.2,1.3-3.2,3.5
			C658,355.2,659.2,356.6,661.2,356.6z"/>
		<path class="st5" d="M668.8,347.2h2.9v7.1c0,1.4,0.7,2.2,2.1,2.2s2.1-0.8,2.1-2.2v-7.1h2.9v7.1c0,3.3-2.3,4.9-5.1,4.9
			c-2.8,0-4.9-1.6-4.9-4.9V347.2z"/>
		<path class="st5" d="M685.7,347.2c2.9,0,4.4,1.7,4.4,3.8c0,1.5-0.8,2.9-2.7,3.5l2.8,4.7h-3.3l-2.5-4.5h-0.7v4.5h-2.9v-11.9H685.7z
			 M685.6,349.6h-1.8v3h1.8c1.1,0,1.6-0.6,1.6-1.5C687.2,350.2,686.7,349.6,685.6,349.6z"/>
		<path class="st5" d="M702.6,347.2v11.9h-2.9l-4.9-7.4v7.4h-2.9v-11.9h2.9l4.9,7.4v-7.4H702.6z"/>
		<path class="st5" d="M712.2,357.1h-4.5l-0.7,2.1h-3l4.3-11.9h3.4l4.3,11.9h-3.1L712.2,357.1z M709.9,350.4l-1.5,4.4h2.9
			L709.9,350.4z"/>
		<path class="st5" d="M720.2,347.2v9.7h3.8v2.2h-6.7v-11.9H720.2z"/>
	</g>
</g>
</svg>
